<svg width="171" height="96" xmlns="http://www.w3.org/2000/svg" xmlns:xlink="http://www.w3.org/1999/xlink" overflow="hidden"><g><rect x="0" y="0" width="171" height="95.8129" fill="#FFFFFF"/><path d="M28.8635 7.022 31.8355 4.05744 34.8034 7.02115 31.8313 9.98571Z" fill="#222A35" fill-rule="evenodd"/><path d="M34.7994 7.02266 37.771 4.05769 40.7406 7.0223 37.769 9.98727Z" fill="#222A35" fill-rule="evenodd"/><path d="M40.7361 7.0221 43.7073 4.05671 46.6785 7.0221 43.7073 9.98749Z" fill="#222A35" fill-rule="evenodd"/><path d="M46.6738 7.02536 49.645 4.05996 52.6136 7.02283 49.6424 9.98823Z" fill="#222A35" fill-rule="evenodd"/><path d="M52.6111 7.02466 55.5822 4.05926 58.5522 7.02345 55.581 9.98885Z" fill="#222A35" fill-rule="evenodd"/><path d="M58.5491 7.02196 61.5229 4.05651 64.4903 7.02064 61.5165 9.98609Z" fill="#222A35" fill-rule="evenodd"/><path d="M64.4853 7.02347 67.4569 4.05849 70.4251 7.02178 67.4535 9.98676Z" fill="#222A35" fill-rule="evenodd"/><path d="M70.4225 7.02399 73.3937 4.0586 76.3649 7.02399 73.3937 9.98938Z" fill="#222A35" fill-rule="evenodd"/><path d="M88.2322 7.0243 91.2033 4.05891 94.1745 7.0243 91.2033 9.9897Z" fill="#222A35" fill-rule="evenodd"/><path d="M106.045 7.02137 109.017 4.05723 111.984 7.02136 109.012 9.9855Z" fill="#222A35" fill-rule="evenodd"/><path d="M123.858 7.02539 126.826 4.06168 129.799 7.02755 126.832 9.99126Z" fill="#222A35" fill-rule="evenodd"/><path d="M22.9243 12.9466 25.8964 9.97944 28.868 12.9444 25.8959 15.9116Z" fill="#222A35" fill-rule="evenodd"/><path d="M28.861 12.9482 31.8323 9.98018 34.8047 12.9443 31.8335 15.9123Z" fill="#222A35" fill-rule="evenodd"/><path d="M34.7982 12.9482 37.7694 9.98018 40.7419 12.9443 37.7706 15.9123Z" fill="#222A35" fill-rule="evenodd"/><path d="M40.7353 12.9487 43.707 9.98116 46.6804 12.947 43.7087 15.9146Z" fill="#222A35" fill-rule="evenodd"/><path d="M52.6086 12.9468 55.5803 9.97923 58.5523 12.9438 55.5807 15.9113Z" fill="#222A35" fill-rule="evenodd"/><path d="M58.5463 12.9486 61.5196 9.98027 64.4912 12.9452 61.5179 15.9136Z" fill="#222A35" fill-rule="evenodd"/><path d="M64.4841 12.9477 67.4557 9.98018 70.4278 12.9447 67.4561 15.9123Z" fill="#222A35" fill-rule="evenodd"/><path d="M100.109 12.9512 103.08 9.98326 106.051 12.9462 103.08 15.9142Z" fill="#222A35" fill-rule="evenodd"/><path d="M111.982 12.9482 114.956 9.98073 117.926 12.9453 114.952 15.9128Z" fill="#222A35" fill-rule="evenodd"/><path d="M117.918 12.9496 120.889 9.98116 123.863 12.9462 120.893 15.9146Z" fill="#222A35" fill-rule="evenodd"/><path d="M123.857 12.9521 126.827 9.98291 129.803 12.9483 126.833 15.9175Z" fill="#222A35" fill-rule="evenodd"/><path d="M129.795 12.9487 132.766 9.98074 135.74 12.9462 132.769 15.9142Z" fill="#222A35" fill-rule="evenodd"/><path d="M135.728 12.9473 138.704 9.97892 141.674 12.9452 138.699 15.9135Z" fill="#222A35" fill-rule="evenodd"/><path d="M141.665 12.9476 144.64 9.98006 147.61 12.9459 144.636 15.9134Z" fill="#222A35" fill-rule="evenodd"/><path d="M5.11069 18.8705 8.08278 15.9033 11.0544 18.8683 8.0823 21.8354Z" fill="#222A35" fill-rule="evenodd"/><path d="M11.0492 18.8685 14.0203 15.9031 16.9915 18.8685 14.0203 21.8339Z" fill="#222A35" fill-rule="evenodd"/><path d="M16.9861 18.8693 19.9573 15.9039 22.9298 18.8706 19.9586 21.836Z" fill="#222A35" fill-rule="evenodd"/><path d="M22.9234 18.8709 25.895 15.9059 28.8658 18.8718 25.8942 21.8367Z" fill="#222A35" fill-rule="evenodd"/><path d="M28.8594 18.871 31.8314 15.9039 34.803 18.8688 31.831 21.836Z" fill="#222A35" fill-rule="evenodd"/><path d="M34.7964 18.871 37.7685 15.9039 40.7401 18.8688 37.768 21.836Z" fill="#222A35" fill-rule="evenodd"/><path d="M40.7357 18.8693 43.7069 15.9039 46.6794 18.8706 43.7082 21.836Z" fill="#222A35" fill-rule="evenodd"/><path d="M46.6723 18.8717 49.6435 15.9063 52.6147 18.8717 49.6435 21.837Z" fill="#222A35" fill-rule="evenodd"/><path d="M58.5483 18.8671 61.5213 15.9008 64.4934 18.868 61.5204 21.8343Z" fill="#222A35" fill-rule="evenodd"/><path d="M64.4851 18.8705 67.4576 15.9037 70.4288 18.8691 67.4563 21.8359Z" fill="#222A35" fill-rule="evenodd"/><path d="M88.2303 18.8701 91.201 15.9043 94.1726 18.8692 91.2019 21.8351Z" fill="#222A35" fill-rule="evenodd"/><path d="M94.1693 18.8687 97.1439 15.9016 100.112 18.8653 97.1371 21.8324Z" fill="#222A35" fill-rule="evenodd"/><path d="M100.109 18.8694 103.08 15.9041 106.051 18.8694 103.08 21.8348Z" fill="#222A35" fill-rule="evenodd"/><path d="M106.043 18.8672 109.016 15.9009 111.987 18.8667 109.014 21.833Z" fill="#222A35" fill-rule="evenodd"/><path d="M111.983 18.868 114.957 15.9009 117.925 18.8646 114.951 21.8317Z" fill="#222A35" fill-rule="evenodd"/><path d="M117.919 18.8679 120.89 15.9025 123.863 18.8704 120.892 21.8358Z" fill="#222A35" fill-rule="evenodd"/><path d="M123.857 18.8748 126.825 15.9085 129.8 18.8731 126.832 21.8394Z" fill="#222A35" fill-rule="evenodd"/><path d="M129.797 18.8727 132.767 15.9061 135.741 18.8715 132.771 21.8382Z" fill="#222A35" fill-rule="evenodd"/><path d="M135.729 18.8696 138.704 15.9025 141.674 18.8687 138.699 21.8358Z" fill="#222A35" fill-rule="evenodd"/><path d="M141.667 18.869 144.641 15.9015 147.613 18.8686 144.639 21.8361Z" fill="#222A35" fill-rule="evenodd"/><path d="M147.606 18.8706 150.576 15.9048 153.548 18.8698 150.577 21.8356Z" fill="#222A35" fill-rule="evenodd"/><path d="M153.542 18.8717 156.513 15.9063 159.484 18.8717 156.513 21.837Z" fill="#222A35" fill-rule="evenodd"/><path d="M5.11175 24.7961 8.08293 21.8307 11.0529 24.7949 8.08173 27.7603Z" fill="#222A35" fill-rule="evenodd"/><path d="M11.0504 24.7932 14.022 21.8282 16.9915 24.7928 14.0199 27.7578Z" fill="#222A35" fill-rule="evenodd"/><path d="M16.9855 24.7952 19.9546 21.8302 22.9267 24.7947 19.9575 27.7597Z" fill="#222A35" fill-rule="evenodd"/><path d="M22.9253 24.7949 25.8965 21.8296 28.8664 24.7937 25.8952 27.7591Z" fill="#222A35" fill-rule="evenodd"/><path d="M28.8607 24.7925 31.8323 21.8275 34.8005 24.7908 31.8289 27.7558Z" fill="#222A35" fill-rule="evenodd"/><path d="M34.7989 24.7936 37.7709 21.829 40.7401 24.7941 37.768 27.7586Z" fill="#222A35" fill-rule="evenodd"/><path d="M40.7354 24.795 43.7066 21.8296 46.6777 24.795 43.7066 27.7604Z" fill="#222A35" fill-rule="evenodd"/><path d="M46.6722 24.7951 49.6447 21.8284 52.6147 24.7926 49.6421 27.7593Z" fill="#222A35" fill-rule="evenodd"/><path d="M58.5491 24.7925 61.5229 21.827 64.4903 24.7911 61.5165 27.7566Z" fill="#222A35" fill-rule="evenodd"/><path d="M70.4229 24.7945 73.394 21.8291 76.3652 24.7945 73.394 27.7599Z" fill="#222A35" fill-rule="evenodd"/><path d="M82.2981 24.7957 85.2689 21.8299 88.2393 24.7936 85.2685 27.7595Z" fill="#222A35" fill-rule="evenodd"/><path d="M88.233 24.7926 91.2038 21.8268 94.1767 24.7931 91.206 27.7589Z" fill="#222A35" fill-rule="evenodd"/><path d="M94.1709 24.7935 97.1438 21.8272 100.112 24.7905 97.1392 27.7568Z" fill="#222A35" fill-rule="evenodd"/><path d="M100.108 24.7935 103.078 21.8277 106.05 24.7927 103.079 27.7585Z" fill="#222A35" fill-rule="evenodd"/><path d="M106.044 24.7932 109.017 21.8269 111.986 24.7915 109.014 27.7578Z" fill="#222A35" fill-rule="evenodd"/><path d="M111.984 24.7941 114.957 21.8283 117.925 24.792 114.952 27.7579Z" fill="#222A35" fill-rule="evenodd"/><path d="M117.917 24.7933 120.89 21.8274 123.861 24.7937 120.887 27.7595Z" fill="#222A35" fill-rule="evenodd"/><path d="M123.859 24.7958 126.831 21.8304 129.798 24.7921 126.827 27.7575Z" fill="#222A35" fill-rule="evenodd"/><path d="M129.796 24.7928 132.771 21.8277 135.738 24.7923 132.763 27.7573Z" fill="#222A35" fill-rule="evenodd"/><path d="M135.732 24.7937 138.706 21.8266 141.675 24.7916 138.701 27.7587Z" fill="#222A35" fill-rule="evenodd"/><path d="M141.672 24.7958 144.643 21.8304 147.61 24.7921 144.639 27.7575Z" fill="#222A35" fill-rule="evenodd"/><path d="M147.606 24.7924 150.58 21.8273 153.547 24.7919 150.573 27.7569Z" fill="#222A35" fill-rule="evenodd"/><path d="M153.545 24.7951 156.516 21.8297 159.485 24.7926 156.513 27.758Z" fill="#222A35" fill-rule="evenodd"/><path d="M159.481 24.7958 162.452 21.8304 165.419 24.7921 162.448 27.7575Z" fill="#222A35" fill-rule="evenodd"/><path d="M5.11164 30.7205 8.08241 27.7547 11.0528 30.7185 8.08204 33.6843Z" fill="#222A35" fill-rule="evenodd"/><path d="M11.05 30.7181 14.0208 27.7523 16.9912 30.7161 14.0204 33.6819Z" fill="#222A35" fill-rule="evenodd"/><path d="M16.9844 30.7207 19.9543 27.754 22.9268 30.7182 19.9569 33.6848Z" fill="#222A35" fill-rule="evenodd"/><path d="M22.9221 30.7193 25.8928 27.7535 28.8644 30.7185 25.8937 33.6843Z" fill="#222A35" fill-rule="evenodd"/><path d="M28.8618 30.7209 31.8347 27.7546 34.8029 30.7179 31.83 33.6842Z" fill="#222A35" fill-rule="evenodd"/><path d="M34.7967 30.7197 37.7688 27.7526 40.7404 30.7175 37.7683 33.6847Z" fill="#222A35" fill-rule="evenodd"/><path d="M40.7354 30.719 43.707 27.754 46.6777 30.7198 43.7061 33.6848Z" fill="#222A35" fill-rule="evenodd"/><path d="M46.6724 30.7173 49.6436 27.7519 52.6123 30.7148 49.6411 33.6802Z" fill="#222A35" fill-rule="evenodd"/><path d="M76.3582 30.7176 79.3311 27.7513 82.3007 30.716 79.3277 33.6823Z" fill="#222A35" fill-rule="evenodd"/><path d="M82.2973 30.7201 85.2677 27.7538 88.2397 30.7184 85.2694 33.6846Z" fill="#222A35" fill-rule="evenodd"/><path d="M88.2314 30.718 91.2021 27.7522 94.175 30.7185 91.2043 33.6843Z" fill="#222A35" fill-rule="evenodd"/><path d="M94.1702 30.7182 97.1448 27.7511 100.113 30.7148 97.1381 33.6819Z" fill="#222A35" fill-rule="evenodd"/><path d="M100.107 30.7185 103.078 27.7531 106.049 30.7185 103.078 33.6839Z" fill="#222A35" fill-rule="evenodd"/><path d="M106.043 30.7162 109.016 27.7499 111.987 30.7158 109.014 33.6821Z" fill="#222A35" fill-rule="evenodd"/><path d="M111.982 30.7182 114.957 27.7511 117.925 30.7148 114.95 33.6819Z" fill="#222A35" fill-rule="evenodd"/><path d="M117.919 30.7195 120.89 27.752 123.864 30.7178 120.892 33.6854Z" fill="#222A35" fill-rule="evenodd"/><path d="M123.859 30.7211 126.83 27.7553 129.799 30.7177 126.828 33.6836Z" fill="#222A35" fill-rule="evenodd"/><path d="M129.795 30.7182 132.769 27.7511 135.737 30.7148 132.762 33.6819Z" fill="#222A35" fill-rule="evenodd"/><path d="M135.732 30.7175 138.708 27.75 141.677 30.7158 138.7 33.6834Z" fill="#222A35" fill-rule="evenodd"/><path d="M141.671 30.7226 144.641 27.7559 147.614 30.7201 144.644 33.6867Z" fill="#222A35" fill-rule="evenodd"/><path d="M147.606 30.7162 150.584 27.7499 153.549 30.7157 150.571 33.682Z" fill="#222A35" fill-rule="evenodd"/><path d="M22.9251 36.6426 25.8963 33.6772 28.8675 36.6426 25.8963 39.608Z" fill="#222A35" fill-rule="evenodd"/><path d="M28.8609 36.6447 31.8329 33.6775 34.8033 36.6413 31.8313 39.6084Z" fill="#222A35" fill-rule="evenodd"/><path d="M34.7969 36.643 37.7694 33.6762 40.7406 36.6416 37.7681 39.6083Z" fill="#222A35" fill-rule="evenodd"/><path d="M40.7366 36.6425 43.7074 33.6767 46.679 36.6416 43.7082 39.6074Z" fill="#222A35" fill-rule="evenodd"/><path d="M46.6721 36.6436 49.6424 33.6774 52.6145 36.6419 49.6441 39.6082Z" fill="#222A35" fill-rule="evenodd"/><path d="M52.61 36.6432 55.5803 33.677 58.5523 36.6415 55.582 39.6078Z" fill="#222A35" fill-rule="evenodd"/><path d="M76.3579 36.6426 79.3304 33.6759 82.3016 36.6413 79.3291 39.608Z" fill="#222A35" fill-rule="evenodd"/><path d="M82.2987 36.6412 85.2695 33.6754 88.2399 36.6392 85.2691 39.605Z" fill="#222A35" fill-rule="evenodd"/><path d="M88.232 36.6432 91.2019 33.6766 94.1757 36.642 91.2058 39.6087Z" fill="#222A35" fill-rule="evenodd"/><path d="M94.1702 36.64 97.1448 33.6729 100.113 36.6366 97.1381 39.6037Z" fill="#222A35" fill-rule="evenodd"/><path d="M100.108 36.6467 103.076 33.68 106.051 36.6441 103.083 39.6109Z" fill="#222A35" fill-rule="evenodd"/><path d="M106.044 36.6399 109.019 33.6733 111.988 36.6399 109.013 39.6066Z" fill="#222A35" fill-rule="evenodd"/><path d="M111.982 36.64 114.957 33.6729 117.925 36.6366 114.95 39.6037Z" fill="#222A35" fill-rule="evenodd"/><path d="M117.92 36.6397 120.891 33.6743 123.862 36.6397 120.891 39.6051Z" fill="#222A35" fill-rule="evenodd"/><path d="M123.857 36.6436 126.828 33.6782 129.797 36.6411 126.826 39.6065Z" fill="#222A35" fill-rule="evenodd"/><path d="M129.795 36.64 132.769 33.6729 135.737 36.6366 132.762 39.6037Z" fill="#222A35" fill-rule="evenodd"/><path d="M135.733 36.6415 138.706 33.6752 141.677 36.641 138.704 39.6073Z" fill="#222A35" fill-rule="evenodd"/><path d="M147.605 36.6378 150.581 33.672 153.549 36.6383 150.573 39.6041Z" fill="#222A35" fill-rule="evenodd"/><path d="M22.9256 42.566 25.8968 39.6006 28.8655 42.5635 25.8943 45.5289Z" fill="#222A35" fill-rule="evenodd"/><path d="M28.8626 42.5668 31.8338 39.6014 34.8024 42.5642 31.8312 45.5296Z" fill="#222A35" fill-rule="evenodd"/><path d="M34.7999 42.5661 37.7715 39.6012 40.7398 42.5645 37.7682 45.5294Z" fill="#222A35" fill-rule="evenodd"/><path d="M40.7358 42.5658 43.7074 39.6008 46.677 42.5654 43.7054 45.5304Z" fill="#222A35" fill-rule="evenodd"/><path d="M46.6726 42.5669 49.6451 39.6002 52.6137 42.5631 49.6412 45.5298Z" fill="#222A35" fill-rule="evenodd"/><path d="M76.3592 42.564 79.333 39.5986 82.3004 42.5627 79.3266 45.5281Z" fill="#222A35" fill-rule="evenodd"/><path d="M88.2318 42.5652 91.203 39.5998 94.1729 42.564 91.2018 45.5294Z" fill="#222A35" fill-rule="evenodd"/><path d="M94.1695 42.5613 97.1441 39.5967 100.109 42.5605 97.1348 45.5251Z" fill="#222A35" fill-rule="evenodd"/><path d="M100.109 42.5671 103.079 39.6013 106.05 42.5651 103.079 45.5309Z" fill="#222A35" fill-rule="evenodd"/><path d="M106.046 42.5658 109.018 39.6016 111.985 42.5646 109.012 45.5287Z" fill="#222A35" fill-rule="evenodd"/><path d="M111.982 42.5629 114.956 39.5978 117.923 42.5624 114.949 45.5274Z" fill="#222A35" fill-rule="evenodd"/><path d="M117.918 42.5655 120.889 39.6001 123.86 42.5655 120.889 45.5309Z" fill="#222A35" fill-rule="evenodd"/><path d="M123.858 42.5682 126.831 39.6019 129.796 42.5627 126.823 45.529Z" fill="#222A35" fill-rule="evenodd"/><path d="M129.796 42.5634 132.77 39.5984 135.736 42.5617 132.762 45.5268Z" fill="#222A35" fill-rule="evenodd"/><path d="M135.732 42.5646 138.705 39.5988 141.673 42.5625 138.7 45.5283Z" fill="#222A35" fill-rule="evenodd"/><path d="M141.672 42.5663 144.643 39.6009 147.611 42.5626 144.639 45.528Z" fill="#222A35" fill-rule="evenodd"/><path d="M28.8633 48.491 31.8349 45.526 34.8032 48.4893 31.8315 51.4543Z" fill="#222A35" fill-rule="evenodd"/><path d="M34.8 48.4892 37.7716 45.5243 40.7386 48.4863 37.767 51.4513Z" fill="#222A35" fill-rule="evenodd"/><path d="M40.7356 48.4917 43.7064 45.5259 46.6768 48.4897 43.706 51.4555Z" fill="#222A35" fill-rule="evenodd"/><path d="M70.4226 48.4915 73.3942 45.5265 76.3625 48.4898 73.3909 51.4548Z" fill="#222A35" fill-rule="evenodd"/><path d="M76.3594 48.4894 79.3323 45.5231 82.3006 48.4864 79.3276 51.4527Z" fill="#222A35" fill-rule="evenodd"/><path d="M82.2962 48.4893 85.2678 45.5243 88.236 48.4876 85.2644 51.4526Z" fill="#222A35" fill-rule="evenodd"/><path d="M88.2316 48.4885 91.2023 45.5227 94.1753 48.489 91.2045 51.4548Z" fill="#222A35" fill-rule="evenodd"/><path d="M94.1732 48.4897 97.1444 45.5243 100.113 48.4872 97.1419 51.4526Z" fill="#222A35" fill-rule="evenodd"/><path d="M100.108 48.4936 103.079 45.5278 106.047 48.4891 103.076 51.4549Z" fill="#222A35" fill-rule="evenodd"/><path d="M106.046 48.4914 109.016 45.5256 111.985 48.488 109.015 51.4538Z" fill="#222A35" fill-rule="evenodd"/><path d="M111.984 48.4886 114.958 45.5236 117.925 48.4881 114.951 51.4532Z" fill="#222A35" fill-rule="evenodd"/><path d="M117.919 48.4896 120.893 45.5237 123.862 48.4888 120.889 51.4546Z" fill="#222A35" fill-rule="evenodd"/><path d="M123.86 48.4913 126.831 45.5259 129.798 48.4876 126.827 51.453Z" fill="#222A35" fill-rule="evenodd"/><path d="M129.796 48.4899 132.771 45.5232 135.738 48.4861 132.763 51.4528Z" fill="#222A35" fill-rule="evenodd"/><path d="M135.732 48.4885 138.705 45.5227 141.673 48.4864 138.699 51.4522Z" fill="#222A35" fill-rule="evenodd"/><path d="M34.7987 54.4138 37.7698 51.4484 40.741 54.4138 37.7698 57.3792Z" fill="#222A35" fill-rule="evenodd"/><path d="M40.7327 54.4133 43.7039 51.4479 46.6751 54.4133 43.7039 57.3787Z" fill="#222A35" fill-rule="evenodd"/><path d="M46.673 54.4154 49.6442 51.45 52.6141 54.4142 49.643 57.3796Z" fill="#222A35" fill-rule="evenodd"/><path d="M70.4214 54.4138 73.3926 51.4484 76.3638 54.4138 73.3926 57.3792Z" fill="#222A35" fill-rule="evenodd"/><path d="M76.3588 54.4159 79.3326 51.4505 82.3013 54.4159 79.3275 57.3814Z" fill="#222A35" fill-rule="evenodd"/><path d="M82.2973 54.4143 85.2685 51.4489 88.2397 54.4143 85.2685 57.3797Z" fill="#222A35" fill-rule="evenodd"/><path d="M88.2322 54.414 91.2033 51.4486 94.1745 54.414 91.2033 57.3794Z" fill="#222A35" fill-rule="evenodd"/><path d="M94.1735 54.4105 97.1485 51.4463 100.113 54.4104 97.1384 57.3746Z" fill="#222A35" fill-rule="evenodd"/><path d="M100.109 54.414 103.081 51.4486 106.052 54.414 103.081 57.3794Z" fill="#222A35" fill-rule="evenodd"/><path d="M111.984 54.4137 114.958 51.4478 117.925 54.4115 114.952 57.3774Z" fill="#222A35" fill-rule="evenodd"/><path d="M123.859 54.4153 126.83 51.4499 129.799 54.4128 126.828 57.3782Z" fill="#222A35" fill-rule="evenodd"/><path d="M129.796 54.412 132.77 51.447 135.737 54.4115 132.763 57.3765Z" fill="#222A35" fill-rule="evenodd"/><path d="M46.6712 60.3405 49.642 57.3721 52.6149 60.3358 49.6441 63.3042Z" fill="#222A35" fill-rule="evenodd"/><path d="M52.6092 60.3388 55.5791 57.3721 58.5529 60.3376 55.5829 63.3042Z" fill="#222A35" fill-rule="evenodd"/><path d="M76.3595 60.3398 79.3323 57.371 82.3044 60.3356 79.3315 63.3043Z" fill="#222A35" fill-rule="evenodd"/><path d="M82.2943 60.342 85.2647 57.3732 88.2393 60.3378 85.2689 63.3066Z" fill="#222A35" fill-rule="evenodd"/><path d="M88.2288 60.3412 91.1988 57.3719 94.1738 60.3361 91.2038 63.3053Z" fill="#222A35" fill-rule="evenodd"/><path d="M94.1692 60.3362 97.147 57.3675 100.114 60.3321 97.1362 63.3007Z" fill="#222A35" fill-rule="evenodd"/><path d="M40.735 66.2608 43.7061 63.2954 46.6773 66.2608 43.7061 69.2262Z" fill="#222A35" fill-rule="evenodd"/><path d="M46.6728 66.2626 49.644 63.2972 52.6139 66.2614 49.6427 69.2267Z" fill="#222A35" fill-rule="evenodd"/><path d="M52.6096 66.2609 55.5808 63.2955 58.5508 66.2597 55.5796 69.2251Z" fill="#222A35" fill-rule="evenodd"/><path d="M58.5495 66.2615 61.5232 63.2961 64.4881 66.2577 61.5143 69.2231Z" fill="#222A35" fill-rule="evenodd"/><path d="M82.2974 66.2617 85.2686 63.2963 88.2385 66.2605 85.2674 69.2259Z" fill="#222A35" fill-rule="evenodd"/><path d="M88.2319 66.2612 91.2031 63.2958 94.1743 66.2612 91.2031 69.2265Z" fill="#222A35" fill-rule="evenodd"/><path d="M94.1704 66.259 97.1437 63.2932 100.112 66.2569 97.1382 69.2227Z" fill="#222A35" fill-rule="evenodd"/><path d="M123.859 66.2628 126.83 63.2974 129.799 66.2603 126.828 69.2257Z" fill="#222A35" fill-rule="evenodd"/><path d="M129.796 66.2589 132.77 63.2939 135.737 66.2584 132.763 69.2235Z" fill="#222A35" fill-rule="evenodd"/><path d="M135.731 66.259 138.705 63.2932 141.673 66.2569 138.699 69.2227Z" fill="#222A35" fill-rule="evenodd"/><path d="M141.671 66.263 144.643 63.2977 147.611 66.2605 144.64 69.2259Z" fill="#222A35" fill-rule="evenodd"/><path d="M46.6742 72.187 49.6458 69.2221 52.6166 72.1879 49.645 75.1528Z" fill="#222A35" fill-rule="evenodd"/><path d="M52.6081 72.1877 55.5789 69.2193 58.5543 72.1856 55.5835 75.154Z" fill="#222A35" fill-rule="evenodd"/><path d="M58.5481 72.1852 61.5219 69.2198 64.4906 72.1852 61.5168 75.1507Z" fill="#222A35" fill-rule="evenodd"/><path d="M82.2969 72.1864 85.2681 69.221 88.2393 72.1864 85.2681 75.1518Z" fill="#222A35" fill-rule="evenodd"/><path d="M88.2311 72.1851 91.2023 69.2197 94.176 72.1877 91.2048 75.1531Z" fill="#222A35" fill-rule="evenodd"/><path d="M100.109 72.1864 103.08 69.221 106.051 72.1864 103.08 75.1518Z" fill="#222A35" fill-rule="evenodd"/><path d="M129.796 72.1821 132.771 69.217 135.735 72.1791 132.761 75.1441Z" fill="#222A35" fill-rule="evenodd"/><path d="M135.732 72.1841 138.706 69.2191 141.675 72.1849 138.7 75.15Z" fill="#222A35" fill-rule="evenodd"/><path d="M141.669 72.1865 144.641 69.2211 147.609 72.184 144.638 75.1494Z" fill="#222A35" fill-rule="evenodd"/><path d="M147.605 72.18 150.581 69.2166 153.546 72.1828 150.571 75.1462Z" fill="#222A35" fill-rule="evenodd"/><path d="M46.671 78.1121 49.6418 75.1438 52.6147 78.1075 49.6438 81.0759Z" fill="#222A35" fill-rule="evenodd"/><path d="M52.6074 78.1077 55.5795 75.1406 58.5536 78.1081 55.5815 81.0752Z" fill="#222A35" fill-rule="evenodd"/><path d="M88.2316 78.1067 91.2049 75.1408 94.1753 78.107 91.2019 81.0729Z" fill="#222A35" fill-rule="evenodd"/><path d="M129.793 78.1072 132.768 75.1402 135.736 78.1039 132.761 81.071Z" fill="#222A35" fill-rule="evenodd"/><path d="M135.729 78.1071 138.702 75.1412 141.675 78.11 138.702 81.0759Z" fill="#222A35" fill-rule="evenodd"/><path d="M141.67 78.1149 144.64 75.1465 147.612 78.109 144.641 81.0774Z" fill="#222A35" fill-rule="evenodd"/><path d="M46.6726 84.0329 49.6438 81.0675 52.6125 84.0304 49.6413 86.9958Z" fill="#222A35" fill-rule="evenodd"/><path d="M153.544 84.0327 156.517 81.0668 159.485 84.0305 156.512 86.9964Z" fill="#222A35" fill-rule="evenodd"/><path d="M46.6724 89.9582 49.6441 86.9932 52.6136 89.9578 49.642 92.9228Z" fill="#222A35" fill-rule="evenodd"/></g></svg>